<svg version="1.1" id="Layer_1" xmlns="http://www.w3.org/2000/svg" xmlns:xlink="http://www.w3.org/1999/xlink" x="0px" y="0px"
	 width="100%" viewBox="0 0 512 512" enable-background="new 0 0 512 512" xml:space="preserve">
<path fill="#7131E3" opacity="1.000000" stroke="none" 
	d="
M326.000000,513.000000 
	C217.359726,513.000000 109.219444,513.000000 1.039583,513.000000 
	C1.039583,342.401367 1.039583,171.802719 1.039583,1.102037 
	C171.556946,1.102037 342.113983,1.102037 512.835510,1.102037 
	C512.835510,171.666534 512.835510,342.333252 512.835510,513.000000 
	C450.802704,513.000000 388.651337,513.000000 326.000000,513.000000 
M392.342834,160.193481 
	C391.528717,157.143295 390.883148,154.036057 389.873169,151.052185 
	C383.140808,131.162125 370.577179,117.271088 349.178711,113.593544 
	C340.894867,112.169884 332.234436,111.573669 323.873169,112.229004 
	C301.754425,113.962624 285.259979,124.544815 276.032623,145.314606 
	C271.317017,155.928955 269.181732,167.117432 267.817780,178.583679 
	C267.332703,182.661774 266.223083,187.330276 263.742371,190.383698 
	C255.785995,200.176849 255.657608,217.245132 264.627991,226.095535 
	C268.123566,229.544327 269.724548,233.505768 271.248047,238.023239 
	C272.835632,242.730820 275.205933,247.783386 278.726501,251.101669 
	C285.772003,257.742371 306.105133,257.669434 314.371307,252.215240 
	C321.549530,247.478882 322.431427,240.586929 321.873383,232.906067 
	C321.458954,227.201202 323.842194,225.118622 329.220093,225.962036 
	C333.355194,226.610535 333.819977,229.530762 333.906921,232.962494 
	C334.201355,244.584427 339.705139,252.290665 350.787231,254.497925 
	C357.333801,255.801834 364.435333,256.065002 371.022766,255.060867 
	C385.466431,252.859207 390.687592,246.554138 391.975800,232.138901 
	C392.123840,230.482178 392.390045,228.836212 392.549072,227.180222 
	C394.667023,205.123886 396.899567,183.066696 392.342834,160.193481 
M201.448227,402.001923 
	C206.429688,401.643768 211.458755,401.601501 216.382355,400.859406 
	C225.636536,399.464569 234.898468,397.612427 242.231216,391.223511 
	C253.536530,381.373444 253.190613,368.451538 251.016922,355.228729 
	C249.673080,347.053925 244.548492,341.495087 236.694885,340.551605 
	C227.875763,339.492126 218.805145,340.113922 209.873566,340.576294 
	C205.402588,340.807739 203.952698,344.447388 204.240479,348.567993 
	C204.535751,352.795898 206.635239,355.397858 211.183472,355.411285 
	C212.509201,355.415192 214.329803,354.871918 215.058151,355.532990 
	C216.599411,356.931793 218.142456,358.852692 218.500214,360.779388 
	C218.648010,361.575409 215.713486,363.932251 214.246323,363.875824 
	C206.043503,363.560486 198.654892,361.008911 194.905334,352.959503 
	C189.976669,342.378845 190.572220,331.532166 195.179276,321.044128 
	C197.639191,315.444061 203.542633,314.685791 207.925659,319.039276 
	C210.153351,321.251984 211.908646,323.941345 213.868713,326.422180 
	C216.949356,330.321320 220.947281,332.583069 225.935211,332.348175 
	C234.667664,331.937012 242.527878,328.983521 249.214569,323.276520 
	C253.604050,319.530182 256.017883,314.679352 256.255585,308.887299 
	C257.010620,290.490265 248.611389,276.916412 233.629379,267.130402 
	C221.103851,258.948944 206.961151,257.235443 192.392502,257.963196 
	C171.805359,258.991699 155.072556,267.463867 145.189758,285.829773 
	C130.123032,313.829376 130.170654,343.050049 142.126541,372.067383 
	C148.287827,387.021057 160.476379,396.080750 176.226791,399.442139 
	C184.128998,401.128601 192.375870,401.200165 201.448227,402.001923 
M189.204056,123.499428 
	C186.861801,121.178337 184.822510,118.395775 182.120819,116.622215 
	C173.837418,111.184425 164.407898,110.974136 155.098648,112.398369 
	C140.818954,114.583023 134.394669,122.328186 133.822342,136.797241 
	C132.937088,159.177368 139.976624,178.055130 158.278015,191.896347 
	C163.750656,196.035294 166.184158,201.350098 166.150909,208.250778 
	C166.110870,216.568954 166.644028,224.892365 167.019882,233.209412 
	C167.454620,242.829285 171.967514,250.263123 181.153519,252.930969 
	C188.329834,255.015106 196.297836,256.165436 203.672806,255.401611 
	C219.186188,253.794846 225.298798,245.777725 224.930359,230.084976 
	C224.797516,224.425964 224.758453,218.729218 224.060089,213.126556 
	C222.681061,202.063385 226.657043,194.465836 235.891800,187.775314 
	C254.815292,174.065399 261.587738,148.318207 253.611069,126.341934 
	C250.640625,118.158150 244.891296,113.395721 236.444305,112.288490 
	C231.861649,111.687798 227.087540,111.682304 222.491669,112.209427 
	C208.353714,113.830986 203.013412,120.477661 203.926575,134.663651 
	C204.119141,137.655090 204.723419,140.659042 204.561600,143.625793 
	C204.264160,149.079117 203.956787,154.602341 202.775513,159.900681 
	C202.332367,161.888229 199.612076,164.324051 197.608170,164.665222 
	C196.312790,164.885757 193.284103,161.837387 193.022293,159.974213 
	C192.082047,153.282928 192.112747,146.462006 191.534683,139.710800 
	C191.088364,134.498260 190.279907,129.316727 189.204056,123.499428 
M294.098907,313.520447 
	C295.089508,333.962097 295.735687,354.428131 297.179596,374.837738 
	C298.336609,391.191589 309.146393,401.330017 325.661316,401.821472 
	C335.446442,402.112671 345.346222,401.828125 355.044891,400.610657 
	C361.672363,399.778748 368.370972,397.593262 374.445435,394.748230 
	C382.562775,390.946320 385.326904,381.664154 382.458221,371.852234 
	C380.346832,364.630524 375.032776,361.374725 365.696289,361.598328 
	C363.533722,361.650116 361.372589,361.767578 359.209930,361.807037 
	C354.966125,361.884399 352.744141,359.640656 352.281036,355.557037 
	C352.094116,353.908539 352.016205,352.231018 352.076843,350.573608 
	C352.905029,327.952698 353.568665,305.323181 354.691010,282.716553 
	C355.401978,268.396210 349.275909,260.275696 335.047211,258.350281 
	C331.274261,257.839691 327.403137,257.863983 323.582245,257.932190 
	C308.333618,258.204468 299.760773,264.789398 297.186371,279.778961 
	C295.335754,290.554352 295.077637,301.603210 294.098907,313.520447 
z"/>
<path fill="#FED450" opacity="1.000000" stroke="none" 
	d="
M392.464111,160.600037 
	C396.899567,183.066696 394.667023,205.123886 392.549072,227.180222 
	C392.390045,228.836212 392.123840,230.482178 391.975800,232.138901 
	C390.687592,246.554138 385.466431,252.859207 371.022766,255.060867 
	C364.435333,256.065002 357.333801,255.801834 350.787231,254.497925 
	C339.705139,252.290665 334.201355,244.584427 333.906921,232.962494 
	C333.819977,229.530762 333.355194,226.610535 329.220093,225.962036 
	C323.842194,225.118622 321.458954,227.201202 321.873383,232.906067 
	C322.431427,240.586929 321.549530,247.478882 314.371307,252.215240 
	C306.105133,257.669434 285.772003,257.742371 278.726501,251.101669 
	C275.205933,247.783386 272.835632,242.730820 271.248047,238.023239 
	C269.724548,233.505768 268.123566,229.544327 264.627991,226.095535 
	C255.657608,217.245132 255.785995,200.176849 263.742371,190.383698 
	C266.223083,187.330276 267.332703,182.661774 267.817780,178.583679 
	C269.181732,167.117432 271.317017,155.928955 276.032623,145.314606 
	C285.259979,124.544815 301.754425,113.962624 323.873169,112.229004 
	C332.234436,111.573669 340.894867,112.169884 349.178711,113.593544 
	C370.577179,117.271088 383.140808,131.162125 389.873169,151.052185 
	C390.883148,154.036057 391.528717,157.143295 392.464111,160.600037 
M335.727539,177.239624 
	C331.989075,170.299149 327.342773,168.500366 322.928986,172.284760 
	C319.964996,174.826096 318.721283,180.524582 320.642273,183.689224 
	C323.222473,187.939728 327.388062,187.533737 331.326416,186.641479 
	C335.899323,185.605453 336.401947,181.975082 335.727539,177.239624 
z"/>
<path fill="#7ED858" opacity="1.000000" stroke="none" 
	d="
M200.957550,402.001984 
	C192.375870,401.200165 184.128998,401.128601 176.226791,399.442139 
	C160.476379,396.080750 148.287827,387.021057 142.126541,372.067383 
	C130.170654,343.050049 130.123032,313.829376 145.189758,285.829773 
	C155.072556,267.463867 171.805359,258.991699 192.392502,257.963196 
	C206.961151,257.235443 221.103851,258.948944 233.629379,267.130402 
	C248.611389,276.916412 257.010620,290.490265 256.255585,308.887299 
	C256.017883,314.679352 253.604050,319.530182 249.214569,323.276520 
	C242.527878,328.983521 234.667664,331.937012 225.935211,332.348175 
	C220.947281,332.583069 216.949356,330.321320 213.868713,326.422180 
	C211.908646,323.941345 210.153351,321.251984 207.925659,319.039276 
	C203.542633,314.685791 197.639191,315.444061 195.179276,321.044128 
	C190.572220,331.532166 189.976669,342.378845 194.905334,352.959503 
	C198.654892,361.008911 206.043503,363.560486 214.246323,363.875824 
	C215.713486,363.932251 218.648010,361.575409 218.500214,360.779388 
	C218.142456,358.852692 216.599411,356.931793 215.058151,355.532990 
	C214.329803,354.871918 212.509201,355.415192 211.183472,355.411285 
	C206.635239,355.397858 204.535751,352.795898 204.240479,348.567993 
	C203.952698,344.447388 205.402588,340.807739 209.873566,340.576294 
	C218.805145,340.113922 227.875763,339.492126 236.694885,340.551605 
	C244.548492,341.495087 249.673080,347.053925 251.016922,355.228729 
	C253.190613,368.451538 253.536530,381.373444 242.231216,391.223511 
	C234.898468,397.612427 225.636536,399.464569 216.382355,400.859406 
	C211.458755,401.601501 206.429688,401.643768 200.957550,402.001984 
z"/>
<path fill="#4DCFE1" opacity="1.000000" stroke="none" 
	d="
M189.418243,123.810410 
	C190.279907,129.316727 191.088364,134.498260 191.534683,139.710800 
	C192.112747,146.462006 192.082047,153.282928 193.022293,159.974213 
	C193.284103,161.837387 196.312790,164.885757 197.608170,164.665222 
	C199.612076,164.324051 202.332367,161.888229 202.775513,159.900681 
	C203.956787,154.602341 204.264160,149.079117 204.561600,143.625793 
	C204.723419,140.659042 204.119141,137.655090 203.926575,134.663651 
	C203.013412,120.477661 208.353714,113.830986 222.491669,112.209427 
	C227.087540,111.682304 231.861649,111.687798 236.444305,112.288490 
	C244.891296,113.395721 250.640625,118.158150 253.611069,126.341934 
	C261.587738,148.318207 254.815292,174.065399 235.891800,187.775314 
	C226.657043,194.465836 222.681061,202.063385 224.060089,213.126556 
	C224.758453,218.729218 224.797516,224.425964 224.930359,230.084976 
	C225.298798,245.777725 219.186188,253.794846 203.672806,255.401611 
	C196.297836,256.165436 188.329834,255.015106 181.153519,252.930969 
	C171.967514,250.263123 167.454620,242.829285 167.019882,233.209412 
	C166.644028,224.892365 166.110870,216.568954 166.150909,208.250778 
	C166.184158,201.350098 163.750656,196.035294 158.278015,191.896347 
	C139.976624,178.055130 132.937088,159.177368 133.822342,136.797241 
	C134.394669,122.328186 140.818954,114.583023 155.098648,112.398369 
	C164.407898,110.974136 173.837418,111.184425 182.120819,116.622215 
	C184.822510,118.395775 186.861801,121.178337 189.418243,123.810410 
z"/>
<path fill="#FE8A66" opacity="1.000000" stroke="none" 
	d="
M294.104004,313.025269 
	C295.077637,301.603210 295.335754,290.554352 297.186371,279.778961 
	C299.760773,264.789398 308.333618,258.204468 323.582245,257.932190 
	C327.403137,257.863983 331.274261,257.839691 335.047211,258.350281 
	C349.275909,260.275696 355.401978,268.396210 354.691010,282.716553 
	C353.568665,305.323181 352.905029,327.952698 352.076843,350.573608 
	C352.016205,352.231018 352.094116,353.908539 352.281036,355.557037 
	C352.744141,359.640656 354.966125,361.884399 359.209930,361.807037 
	C361.372589,361.767578 363.533722,361.650116 365.696289,361.598328 
	C375.032776,361.374725 380.346832,364.630524 382.458221,371.852234 
	C385.326904,381.664154 382.562775,390.946320 374.445435,394.748230 
	C368.370972,397.593262 361.672363,399.778748 355.044891,400.610657 
	C345.346222,401.828125 335.446442,402.112671 325.661316,401.821472 
	C309.146393,401.330017 298.336609,391.191589 297.179596,374.837738 
	C295.735687,354.428131 295.089508,333.962097 294.104004,313.025269 
z"/>
<path fill="#7131E3" opacity="1.000000" stroke="none" 
	d="
M335.815979,177.629013 
	C336.401947,181.975082 335.899323,185.605453 331.326416,186.641479 
	C327.388062,187.533737 323.222473,187.939728 320.642273,183.689224 
	C318.721283,180.524582 319.964996,174.826096 322.928986,172.284760 
	C327.342773,168.500366 331.989075,170.299149 335.815979,177.629013 
z"/>
</svg>